ISO-10303-21;
HEADER;
FILE_DESCRIPTION (( 'STEP AP214' ),
    '1' );
FILE_NAME ('TransferShim.STEP',
    '2026-08-17T17:47:11',
    ( 'root' ),
    ( '' ),
    'SwSTEP 2.0',
    'SolidWorks 2023',
    '' );
FILE_SCHEMA (( 'AUTOMOTIVE_DESIGN' ));
ENDSEC;

DATA;
#1 = CARTESIAN_POINT ( 'NONE',  ( -18.99999999999999645, 0.0000000000000000000, -2.749999999999999112 ) ) ;
#2 = ADVANCED_FACE ( 'NONE', ( #604 ), #144, .F. ) ;
#3 = LINE ( 'NONE', #45, #26 ) ;
#4 = CARTESIAN_POINT ( 'NONE',  ( 0.0000000000000000000, 3.000000000000000000, 0.0000000000000000000 ) ) ;
#5 = VECTOR ( 'NONE', #501, 1000.000000000000000 ) ;
#6 = EDGE_CURVE ( 'NONE', #554, #469, #73, .T. ) ;
#7 = VECTOR ( 'NONE', #8, 1000.000000000000000 ) ;
#8 = DIRECTION ( 'NONE',  ( 0.0000000000000000000, -1.000000000000000000, 0.0000000000000000000 ) ) ;
#9 = VERTEX_POINT ( 'NONE', #587 ) ;
#10 = EDGE_LOOP ( 'NONE', ( #433, #450, #127, #195 ) ) ;
#11 = DIRECTION ( 'NONE',  ( 0.0000000000000000000, 0.0000000000000000000, 1.000000000000000000 ) ) ;
#12 = CARTESIAN_POINT ( 'NONE',  ( 0.0000000000000000000, 3.000000000000000000, 9.800000000000000711 ) ) ;
#13 = DIRECTION ( 'NONE',  ( 0.0000000000000000000, 1.000000000000000000, 0.0000000000000000000 ) ) ;
#14 = EDGE_LOOP ( 'NONE', ( #599, #532, #131, #405 ) ) ;
#15 = CARTESIAN_POINT ( 'NONE',  ( 0.0000000000000000000, 2.299999999999999822, 9.800000000000000711 ) ) ;
#16 = VECTOR ( 'NONE', #343, 1000.000000000000000 ) ;
#17 = ORIENTED_EDGE ( 'NONE', *, *, #185, .T. ) ;
#18 = CARTESIAN_POINT ( 'NONE',  ( 1.371604415045035710E-15, 3.000000000000000000, -11.20000000000000107 ) ) ;
#19 = EDGE_LOOP ( 'NONE', ( #561, #443, #282, #258 ) ) ;
#20 = DIRECTION ( 'NONE',  ( 0.0000000000000000000, -1.000000000000000000, 0.0000000000000000000 ) ) ;
#21 = EDGE_CURVE ( 'NONE', #376, #499, #360, .T. ) ;
#22 = ORIENTED_EDGE ( 'NONE', *, *, #185, .F. ) ;
#23 = DIRECTION ( 'NONE',  ( 0.0000000000000000000, 0.0000000000000000000, -1.000000000000000000 ) ) ;
#24 = DIRECTION ( 'NONE',  ( 4.565061778886334783E-17, 0.0000000000000000000, -1.000000000000000000 ) ) ;
#25 = CLOSED_SHELL ( 'NONE', ( #114, #350, #109, #36, #401, #552, #277, #123, #97, #163, #2, #72, #516, #106, #31, #568, #428, #289, #528, #363 ) ) ;
#26 = VECTOR ( 'NONE', #202, 1000.000000000000000 ) ;
#27 = PLANE ( 'NONE',  #269 ) ;
#28 = ORIENTED_EDGE ( 'NONE', *, *, #456, .F. ) ;
#29 = CIRCLE ( 'NONE', #158, 15.00000000000000000 ) ;
#30 = DIRECTION ( 'NONE',  ( 0.0000000000000000000, 0.0000000000000000000, 1.000000000000000000 ) ) ;
#31 = ADVANCED_FACE ( 'NONE', ( #451 ), #540, .T. ) ;
#32 = ORIENTED_EDGE ( 'NONE', *, *, #75, .T. ) ;
#33 = DIRECTION ( 'NONE',  ( 1.000000000000000000, 0.0000000000000000000, 0.0000000000000000000 ) ) ;
#34 = DIRECTION ( 'NONE',  ( 0.0000000000000000000, 0.0000000000000000000, 1.000000000000000000 ) ) ;
#35 = ORIENTED_EDGE ( 'NONE', *, *, #426, .T. ) ;
#36 = ADVANCED_FACE ( 'NONE', ( #489 ), #312, .F. ) ;
#37 = LINE ( 'NONE', #119, #242 ) ;
#38 = ORIENTED_EDGE ( 'NONE', *, *, #82, .T. ) ;
#39 = CARTESIAN_POINT ( 'NONE',  ( 18.00000000000000355, 3.000000000000000000, -12.25000000000000000 ) ) ;
#40 = DIRECTION ( 'NONE',  ( 0.0000000000000000000, 0.0000000000000000000, 1.000000000000000000 ) ) ;
#41 = ORIENTED_EDGE ( 'NONE', *, *, #138, .T. ) ;
#42 = FACE_BOUND ( 'NONE', #172, .T. ) ;
#43 = VERTEX_POINT ( 'NONE', #186 ) ;
#44 = PLANE ( 'NONE',  #245 ) ;
#45 = CARTESIAN_POINT ( 'NONE',  ( 0.0000000000000000000, 2.499999999999992895, 8.074999999999999289 ) ) ;
#46 = AXIS2_PLACEMENT_3D ( 'NONE', #411, #358, #535 ) ;
#47 = FILL_AREA_STYLE_COLOUR ( '', #521 ) ;
#48 = VECTOR ( 'NONE', #429, 1000.000000000000000 ) ;
#49 = FACE_OUTER_BOUND ( 'NONE', #478, .T. ) ;
#50 = CARTESIAN_POINT ( 'NONE',  ( 0.0000000000000000000, 2.499999999999992895, 0.0000000000000000000 ) ) ;
#51 = EDGE_CURVE ( 'NONE', #346, #577, #76, .T. ) ;
#52 = FACE_OUTER_BOUND ( 'NONE', #491, .T. ) ;
#53 = DIRECTION ( 'NONE',  ( 0.0000000000000000000, 1.000000000000000000, 0.0000000000000000000 ) ) ;
#54 = EDGE_CURVE ( 'NONE', #135, #238, #37, .T. ) ;
#55 = UNCERTAINTY_MEASURE_WITH_UNIT (LENGTH_MEASURE( 1.000000000000000082E-05 ), #199, 'distance_accuracy_value', 'NONE');
#56 = ORIENTED_EDGE ( 'NONE', *, *, #367, .T. ) ;
#57 = CYLINDRICAL_SURFACE ( 'NONE', #345, 11.20000000000000107 ) ;
#58 = ORIENTED_EDGE ( 'NONE', *, *, #418, .F. ) ;
#59 = CARTESIAN_POINT ( 'NONE',  ( 9.889022903114875835E-16, 2.499999999999992895, -8.074999999999999289 ) ) ;
#60 = ORIENTED_EDGE ( 'NONE', *, *, #82, .F. ) ;
#61 = DIRECTION ( 'NONE',  ( -0.0000000000000000000, -1.000000000000000000, -0.0000000000000000000 ) ) ;
#62 = EDGE_CURVE ( 'NONE', #408, #228, #402, .T. ) ;
#63 = ORIENTED_EDGE ( 'NONE', *, *, #51, .T. ) ;
#64 = DIRECTION ( 'NONE',  ( 0.0000000000000000000, -0.0000000000000000000, 1.000000000000000000 ) ) ;
#65 = VECTOR ( 'NONE', #570, 1000.000000000000000 ) ;
#66 = VERTEX_POINT ( 'NONE', #265 ) ;
#67 = CARTESIAN_POINT ( 'NONE',  ( -18.99999999999999645, 0.0000000000000000000, -11.25000000000000000 ) ) ;
#68 = EDGE_CURVE ( 'NONE', #324, #238, #112, .T. ) ;
#69 = ADVANCED_BREP_SHAPE_REPRESENTATION ( 'TransferShim', ( #400, #448 ), #205 ) ;
#70 = VERTEX_POINT ( 'NONE', #449 ) ;
#71 = CARTESIAN_POINT ( 'NONE',  ( 1.050134630268856933E-15, 3.000000000000000000, -8.575000000000013500 ) ) ;
#72 = ADVANCED_FACE ( 'NONE', ( #270 ), #415, .F. ) ;
#73 = LINE ( 'NONE', #272, #520 ) ;
#74 = VERTEX_POINT ( 'NONE', #134 ) ;
#75 = EDGE_CURVE ( 'NONE', #361, #66, #531, .T. ) ;
#76 = LINE ( 'NONE', #117, #308 ) ;
#77 = AXIS2_PLACEMENT_3D ( 'NONE', #235, #600, #140 ) ;
#78 = CIRCLE ( 'NONE', #357, 1.000000000000000888 ) ;
#79 = EDGE_LOOP ( 'NONE', ( #370, #403, #517, #104, #314, #440, #380, #92 ) ) ;
#80 = VECTOR ( 'NONE', #453, 1000.000000000000000 ) ;
#81 = CARTESIAN_POINT ( 'NONE',  ( -18.99999999999999645, 3.000000000000000000, 12.25000000000000000 ) ) ;
#82 = EDGE_CURVE ( 'NONE', #461, #536, #227, .T. ) ;
#83 = ORIENTED_EDGE ( 'NONE', *, *, #409, .F. ) ;
#84 = CARTESIAN_POINT ( 'NONE',  ( -3.999999999999996447, 3.000000000000000000, 12.25000000000000000 ) ) ;
#85 = DIRECTION ( 'NONE',  ( 0.0000000000000000000, 1.000000000000000000, 0.0000000000000000000 ) ) ;
#86 = EDGE_LOOP ( 'NONE', ( #60, #332, #110, #83 ) ) ;
#87 = CARTESIAN_POINT ( 'NONE',  ( -3.999999999999996447, 3.000000000000000000, -2.749999999999998224 ) ) ;
#88 = DIRECTION ( 'NONE',  ( 1.000000000000000000, 0.0000000000000000000, 4.565061778886334783E-17 ) ) ;
#89 = ORIENTED_EDGE ( 'NONE', *, *, #592, .F. ) ;
#90 = AXIS2_PLACEMENT_3D ( 'NONE', #240, #508, #247 ) ;
#91 = EDGE_CURVE ( 'NONE', #579, #469, #590, .T. ) ;
#92 = ORIENTED_EDGE ( 'NONE', *, *, #254, .T. ) ;
#93 = CARTESIAN_POINT ( 'NONE',  ( 1.200153863164406345E-15, 2.299999999999999822, -9.800000000000000711 ) ) ;
#94 = DIRECTION ( 'NONE',  ( 0.0000000000000000000, 0.0000000000000000000, 1.000000000000000000 ) ) ;
#95 = DIRECTION ( 'NONE',  ( 0.0000000000000000000, 0.0000000000000000000, 1.000000000000000000 ) ) ;
#96 = DIRECTION ( 'NONE',  ( -0.0000000000000000000, 1.000000000000000000, -0.0000000000000000000 ) ) ;
#97 = ADVANCED_FACE ( 'NONE', ( #404 ), #177, .F. ) ;
#98 = VECTOR ( 'NONE', #176, 1000.000000000000000 ) ;
#99 = CARTESIAN_POINT ( 'NONE',  ( -3.999999999999996447, 0.0000000000000000000, 12.25000000000000000 ) ) ;
#100 = CARTESIAN_POINT ( 'NONE',  ( 0.0000000000000000000, 2.499999999999992895, 0.0000000000000000000 ) ) ;
#101 = AXIS2_PLACEMENT_3D ( 'NONE', #530, #61, #356 ) ;
#102 = DIRECTION ( 'NONE',  ( 0.0000000000000000000, 0.0000000000000000000, 1.000000000000000000 ) ) ;
#103 = PRODUCT_DEFINITION_FORMATION_WITH_SPECIFIED_SOURCE ( 'ANY', '', #211, .NOT_KNOWN. ) ;
#104 = ORIENTED_EDGE ( 'NONE', *, *, #68, .T. ) ;
#105 = DIRECTION ( 'NONE',  ( 0.0000000000000000000, 0.0000000000000000000, 1.000000000000000000 ) ) ;
#106 = ADVANCED_FACE ( 'NONE', ( #230 ), #318, .T. ) ;
#107 = ORIENTED_EDGE ( 'NONE', *, *, #322, .T. ) ;
#108 = DIRECTION ( 'NONE',  ( -0.0000000000000000000, -1.000000000000000000, -0.0000000000000000000 ) ) ;
#109 = ADVANCED_FACE ( 'NONE', ( #181 ), #129, .T. ) ;
#110 = ORIENTED_EDGE ( 'NONE', *, *, #477, .T. ) ;
#111 = CARTESIAN_POINT ( 'NONE',  ( 0.0000000000000000000, 0.0000000000000000000, -8.074999999999999289 ) ) ;
#112 = CIRCLE ( 'NONE', #267, 1.000000000000000888 ) ;
#113 = AXIS2_PLACEMENT_3D ( 'NONE', #221, #108, #399 ) ;
#114 = ADVANCED_FACE ( 'NONE', ( #608 ), #504, .F. ) ;
#115 = ORIENTED_EDGE ( 'NONE', *, *, #494, .F. ) ;
#116 = CARTESIAN_POINT ( 'NONE',  ( 18.00000000000000355, 3.000000000000000000, -11.25000000000000000 ) ) ;
#117 = CARTESIAN_POINT ( 'NONE',  ( 9.889022903114875835E-16, 3.000000000000000000, 8.074999999999999289 ) ) ;
#118 = ORIENTED_EDGE ( 'NONE', *, *, #383, .F. ) ;
#119 = CARTESIAN_POINT ( 'NONE',  ( 19.00000000000000355, 0.0000000000000000000, -12.25000000000000000 ) ) ;
#120 = ORIENTED_EDGE ( 'NONE', *, *, #190, .F. ) ;
#121 = PRODUCT_DEFINITION_SHAPE ( 'NONE', 'NONE',  #597 ) ;
#122 = CARTESIAN_POINT ( 'NONE',  ( -18.99999999999999645, 3.000000000000000000, -11.25000000000000000 ) ) ;
#123 = ADVANCED_FACE ( 'NONE', ( #560 ), #611, .F. ) ;
#124 = AXIS2_PLACEMENT_3D ( 'NONE', #81, #24, #364 ) ;
#125 = CARTESIAN_POINT ( 'NONE',  ( 0.0000000000000000000, 3.000000000000000000, 0.0000000000000000000 ) ) ;
#126 = AXIS2_PLACEMENT_3D ( 'NONE', #305, #603, #198 ) ;
#127 = ORIENTED_EDGE ( 'NONE', *, *, #254, .F. ) ;
#128 = FACE_OUTER_BOUND ( 'NONE', #248, .T. ) ;
#129 = CYLINDRICAL_SURFACE ( 'NONE', #251, 9.800000000000000711 ) ;
#130 = DIRECTION ( 'NONE',  ( 0.0000000000000000000, 1.000000000000000000, 0.0000000000000000000 ) ) ;
#131 = ORIENTED_EDGE ( 'NONE', *, *, #243, .T. ) ;
#132 = CARTESIAN_POINT ( 'NONE',  ( 1.371604415045035710E-15, 3.000000000000000000, -11.20000000000000107 ) ) ;
#133 = DIRECTION ( 'NONE',  ( 0.0000000000000000000, 1.000000000000000000, 0.0000000000000000000 ) ) ;
#134 = CARTESIAN_POINT ( 'NONE',  ( 19.00000000000000355, 3.000000000000000000, -2.749999999999997335 ) ) ;
#135 = VERTEX_POINT ( 'NONE', #194 ) ;
#136 =( LENGTH_UNIT ( ) NAMED_UNIT ( * ) SI_UNIT ( .MILLI., .METRE. ) );
#137 = ORIENTED_EDGE ( 'NONE', *, *, #465, .F. ) ;
#138 = EDGE_CURVE ( 'NONE', #316, #577, #542, .T. ) ;
#139 =( GEOMETRIC_REPRESENTATION_CONTEXT ( 3 ) GLOBAL_UNCERTAINTY_ASSIGNED_CONTEXT ( ( #55 ) ) GLOBAL_UNIT_ASSIGNED_CONTEXT ( ( #199, #564, #518 ) ) REPRESENTATION_CONTEXT ( 'NONE', 'WORKASPACE' ) );
#140 = DIRECTION ( 'NONE',  ( 0.0000000000000000000, 0.0000000000000000000, 1.000000000000000000 ) ) ;
#141 = CYLINDRICAL_SURFACE ( 'NONE', #586, 14.99999999999999822 ) ;
#142 = PLANE ( 'NONE',  #317 ) ;
#143 = CARTESIAN_POINT ( 'NONE',  ( 0.0000000000000000000, 2.299999999999999822, 0.0000000000000000000 ) ) ;
#144 = PLANE ( 'NONE',  #605 ) ;
#145 = CARTESIAN_POINT ( 'NONE',  ( 1.200153863164406345E-15, 3.000000000000000000, -9.800000000000000711 ) ) ;
#146 = EDGE_CURVE ( 'NONE', #346, #43, #3, .T. ) ;
#147 = VECTOR ( 'NONE', #598, 1000.000000000000000 ) ;
#148 = DIRECTION ( 'NONE',  ( 0.0000000000000000000, 0.0000000000000000000, 1.000000000000000000 ) ) ;
#149 = STYLED_ITEM ( 'NONE', ( #609 ), #400 ) ;
#150 = CARTESIAN_POINT ( 'NONE',  ( -18.99999999999999645, 0.0000000000000000000, 12.25000000000000000 ) ) ;
#151 = CARTESIAN_POINT ( 'NONE',  ( 0.0000000000000000000, 2.499999999999992895, -8.074999999999999289 ) ) ;
#152 = APPLICATION_PROTOCOL_DEFINITION ( 'draft international standard', 'automotive_design', 1998, #225 ) ;
#153 = DIRECTION ( 'NONE',  ( 0.0000000000000000000, 0.0000000000000000000, 1.000000000000000000 ) ) ;
#154 = SHAPE_DEFINITION_REPRESENTATION ( #121, #69 ) ;
#155 = ORIENTED_EDGE ( 'NONE', *, *, #214, .F. ) ;
#156 = DIRECTION ( 'NONE',  ( -1.000000000000000000, -0.0000000000000000000, -0.0000000000000000000 ) ) ;
#157 = CIRCLE ( 'NONE', #126, 9.800000000000000711 ) ;
#158 = AXIS2_PLACEMENT_3D ( 'NONE', #87, #283, #325 ) ;
#159 = AXIS2_PLACEMENT_3D ( 'NONE', #606, #229, #94 ) ;
#160 = DIRECTION ( 'NONE',  ( 0.0000000000000000000, 1.000000000000000000, 0.0000000000000000000 ) ) ;
#161 = ORIENTED_EDGE ( 'NONE', *, *, #397, .F. ) ;
#162 = CARTESIAN_POINT ( 'NONE',  ( 4.000000000000003553, 3.000000000000000000, -2.749999999999997335 ) ) ;
#163 = ADVANCED_FACE ( 'NONE', ( #378 ), #142, .F. ) ;
#164 = ORIENTED_EDGE ( 'NONE', *, *, #54, .T. ) ;
#165 = DIRECTION ( 'NONE',  ( -0.0000000000000000000, -1.000000000000000000, -0.0000000000000000000 ) ) ;
#166 = PRODUCT_RELATED_PRODUCT_CATEGORY ( 'part', '', ( #211 ) ) ;
#167 = CARTESIAN_POINT ( 'NONE',  ( 0.0000000000000000000, 3.000000000000000000, 0.0000000000000000000 ) ) ;
#168 = ORIENTED_EDGE ( 'NONE', *, *, #547, .F. ) ;
#169 = LINE ( 'NONE', #304, #204 ) ;
#170 = AXIS2_PLACEMENT_3D ( 'NONE', #342, #432, #95 ) ;
#171 = CARTESIAN_POINT ( 'NONE',  ( 18.00000000000000355, 0.0000000000000000000, -11.25000000000000000 ) ) ;
#172 = EDGE_LOOP ( 'NONE', ( #412, #419 ) ) ;
#173 = CARTESIAN_POINT ( 'NONE',  ( -17.99999999999999645, 3.000000000000000000, -12.25000000000000000 ) ) ;
#174 = CARTESIAN_POINT ( 'NONE',  ( 0.0000000000000000000, 3.000000000000000000, 0.0000000000000000000 ) ) ;
#175 = ORIENTED_EDGE ( 'NONE', *, *, #592, .T. ) ;
#176 = DIRECTION ( 'NONE',  ( -0.0000000000000000000, 1.000000000000000000, -0.0000000000000000000 ) ) ;
#177 = PLANE ( 'NONE',  #124 ) ;
#178 = EDGE_LOOP ( 'NONE', ( #472, #226 ) ) ;
#179 = EDGE_CURVE ( 'NONE', #341, #554, #385, .T. ) ;
#180 = DIRECTION ( 'NONE',  ( 0.0000000000000000000, 0.0000000000000000000, 1.000000000000000000 ) ) ;
#181 = FACE_OUTER_BOUND ( 'NONE', #482, .T. ) ;
#182 = CIRCLE ( 'NONE', #101, 15.00000000000000000 ) ;
#183 = EDGE_LOOP ( 'NONE', ( #263, #455, #56, #58 ) ) ;
#184 = DIRECTION ( 'NONE',  ( 0.0000000000000000000, 1.000000000000000000, 0.0000000000000000000 ) ) ;
#185 = EDGE_CURVE ( 'NONE', #298, #228, #296, .T. ) ;
#186 = CARTESIAN_POINT ( 'NONE',  ( 0.0000000000000000000, 3.000000000000000000, 8.575000000000013500 ) ) ;
#187 = DIRECTION ( 'NONE',  ( 0.0000000000000000000, 1.000000000000000000, 0.0000000000000000000 ) ) ;
#188 = ORIENTED_EDGE ( 'NONE', *, *, #588, .F. ) ;
#189 = CARTESIAN_POINT ( 'NONE',  ( 4.000000000000003553, 0.0000000000000000000, 12.25000000000000178 ) ) ;
#190 = EDGE_CURVE ( 'NONE', #9, #220, #362, .T. ) ;
#191 = ORIENTED_EDGE ( 'NONE', *, *, #409, .T. ) ;
#192 = CYLINDRICAL_SURFACE ( 'NONE', #77, 11.20000000000000107 ) ;
#193 =( NAMED_UNIT ( * ) SI_UNIT ( $, .STERADIAN. ) SOLID_ANGLE_UNIT ( ) );
#194 = CARTESIAN_POINT ( 'NONE',  ( 19.00000000000000355, 0.0000000000000000000, -2.749999999999997335 ) ) ;
#195 = ORIENTED_EDGE ( 'NONE', *, *, #571, .F. ) ;
#196 = AXIS2_PLACEMENT_3D ( 'NONE', #438, #165, #394 ) ;
#197 = FACE_OUTER_BOUND ( 'NONE', #365, .T. ) ;
#198 = DIRECTION ( 'NONE',  ( 1.000000000000000000, 0.0000000000000000000, 0.0000000000000000000 ) ) ;
#199 =( LENGTH_UNIT ( ) NAMED_UNIT ( * ) SI_UNIT ( .MILLI., .METRE. ) );
#200 = CARTESIAN_POINT ( 'NONE',  ( -18.99999999999999645, 3.000000000000000000, -12.25000000000000000 ) ) ;
#201 = CARTESIAN_POINT ( 'NONE',  ( 0.0000000000000000000, 3.000000000000000000, 11.20000000000000107 ) ) ;
#202 = DIRECTION ( 'NONE',  ( 0.0000000000000000000, 0.7071067811865426878, 0.7071067811865524577 ) ) ;
#203 = SURFACE_STYLE_FILL_AREA ( #246 ) ;
#204 = VECTOR ( 'NONE', #582, 1000.000000000000000 ) ;
#205 =( GEOMETRIC_REPRESENTATION_CONTEXT ( 3 ) GLOBAL_UNCERTAINTY_ASSIGNED_CONTEXT ( ( #488 ) ) GLOBAL_UNIT_ASSIGNED_CONTEXT ( ( #136, #377, #193 ) ) REPRESENTATION_CONTEXT ( 'NONE', 'WORKASPACE' ) );
#206 = EDGE_CURVE ( 'NONE', #228, #9, #386, .T. ) ;
#207 = DIRECTION ( 'NONE',  ( 0.0000000000000000000, 0.0000000000000000000, 1.000000000000000000 ) ) ;
#208 = CARTESIAN_POINT ( 'NONE',  ( 4.000000000000003553, 3.000000000000000000, 12.25000000000000178 ) ) ;
#209 = VERTEX_POINT ( 'NONE', #12 ) ;
#210 = CARTESIAN_POINT ( 'NONE',  ( 18.00000000000000355, 0.0000000000000000000, -12.25000000000000000 ) ) ;
#211 = PRODUCT ( 'TransferShim', 'TransferShim', '', ( #610 ) ) ;
#212 = VERTEX_POINT ( 'NONE', #71 ) ;
#213 = CARTESIAN_POINT ( 'NONE',  ( 19.00000000000000355, 0.0000000000000000000, -11.25000000000000000 ) ) ;
#214 = EDGE_CURVE ( 'NONE', #319, #70, #368, .T. ) ;
#215 = AXIS2_PLACEMENT_3D ( 'NONE', #200, #566, #292 ) ;
#216 = AXIS2_PLACEMENT_3D ( 'NONE', #307, #435, #64 ) ;
#217 = CIRCLE ( 'NONE', #349, 9.800000000000000711 ) ;
#218 = ORIENTED_EDGE ( 'NONE', *, *, #503, .F. ) ;
#219 = LINE ( 'NONE', #396, #300 ) ;
#220 = VERTEX_POINT ( 'NONE', #67 ) ;
#221 = CARTESIAN_POINT ( 'NONE',  ( 0.0000000000000000000, 3.000000000000000000, 0.0000000000000000000 ) ) ;
#222 = ORIENTED_EDGE ( 'NONE', *, *, #146, .F. ) ;
#223 = CIRCLE ( 'NONE', #481, 8.074999999999999289 ) ;
#224 = CARTESIAN_POINT ( 'NONE',  ( -18.99999999999999645, 3.000000000000000000, 12.25000000000000000 ) ) ;
#225 = APPLICATION_CONTEXT ( 'automotive_design' ) ;
#226 = ORIENTED_EDGE ( 'NONE', *, *, #480, .F. ) ;
#227 = LINE ( 'NONE', #326, #5 ) ;
#228 = VERTEX_POINT ( 'NONE', #354 ) ;
#229 = DIRECTION ( 'NONE',  ( -0.0000000000000000000, -1.000000000000000000, -0.0000000000000000000 ) ) ;
#230 = FACE_OUTER_BOUND ( 'NONE', #10, .T. ) ;
#231 = ORIENTED_EDGE ( 'NONE', *, *, #384, .F. ) ;
#232 = EDGE_CURVE ( 'NONE', #74, #135, #441, .T. ) ;
#233 = DIRECTION ( 'NONE',  ( -0.0000000000000000000, 1.000000000000000000, -0.0000000000000000000 ) ) ;
#234 = ORIENTED_EDGE ( 'NONE', *, *, #338, .F. ) ;
#235 = CARTESIAN_POINT ( 'NONE',  ( 0.0000000000000000000, 3.000000000000000000, 0.0000000000000000000 ) ) ;
#236 = CARTESIAN_POINT ( 'NONE',  ( 4.000000000000003553, 3.000000000000000000, -2.749999999999997335 ) ) ;
#237 = EDGE_CURVE ( 'NONE', #43, #212, #436, .T. ) ;
#238 = VERTEX_POINT ( 'NONE', #213 ) ;
#239 = VERTEX_POINT ( 'NONE', #15 ) ;
#240 = CARTESIAN_POINT ( 'NONE',  ( 0.0000000000000000000, 2.499999999999992895, 0.0000000000000000000 ) ) ;
#241 = CARTESIAN_POINT ( 'NONE',  ( 0.0000000000000000000, 2.499999999999992895, 0.0000000000000000000 ) ) ;
#242 = VECTOR ( 'NONE', #406, 1000.000000000000000 ) ;
#243 = EDGE_CURVE ( 'NONE', #220, #376, #169, .T. ) ;
#244 = MECHANICAL_DESIGN_GEOMETRIC_PRESENTATION_REPRESENTATION (  '', ( #149 ), #139 ) ;
#245 = AXIS2_PLACEMENT_3D ( 'NONE', #278, #288, #500 ) ;
#246 = FILL_AREA_STYLE ('',( #47 ) ) ;
#247 = DIRECTION ( 'NONE',  ( 0.0000000000000000000, 0.0000000000000000000, 1.000000000000000000 ) ) ;
#248 = EDGE_LOOP ( 'NONE', ( #302, #437, #303, #460 ) ) ;
#249 = CARTESIAN_POINT ( 'NONE',  ( 0.0000000000000000000, 2.299999999999999822, 11.20000000000000107 ) ) ;
#250 = EDGE_CURVE ( 'NONE', #469, #74, #309, .T. ) ;
#251 = AXIS2_PLACEMENT_3D ( 'NONE', #498, #85, #459 ) ;
#252 = CONICAL_SURFACE ( 'NONE', #348, 8.074999999999999289, 0.7853981633974552734 ) ;
#253 = EDGE_CURVE ( 'NONE', #324, #298, #523, .T. ) ;
#254 = EDGE_CURVE ( 'NONE', #341, #376, #182, .T. ) ;
#255 = ORIENTED_EDGE ( 'NONE', *, *, #257, .T. ) ;
#256 = PLANE ( 'NONE',  #216 ) ;
#257 = EDGE_CURVE ( 'NONE', #529, #408, #78, .T. ) ;
#258 = ORIENTED_EDGE ( 'NONE', *, *, #571, .T. ) ;
#259 = CARTESIAN_POINT ( 'NONE',  ( -17.99999999999999645, 3.000000000000000000, -11.25000000000000000 ) ) ;
#260 = AXIS2_PLACEMENT_3D ( 'NONE', #483, #533, #352 ) ;
#261 = ORIENTED_EDGE ( 'NONE', *, *, #206, .F. ) ;
#262 = CARTESIAN_POINT ( 'NONE',  ( 19.00000000000000355, 3.000000000000000000, -2.749999999999997335 ) ) ;
#263 = ORIENTED_EDGE ( 'NONE', *, *, #51, .F. ) ;
#264 = CYLINDRICAL_SURFACE ( 'NONE', #492, 1.000000000000000888 ) ;
#265 = CARTESIAN_POINT ( 'NONE',  ( 1.371604415045035710E-15, 2.299999999999999822, -11.20000000000000107 ) ) ;
#266 = ORIENTED_EDGE ( 'NONE', *, *, #237, .F. ) ;
#267 = AXIS2_PLACEMENT_3D ( 'NONE', #171, #372, #30 ) ;
#268 = AXIS2_PLACEMENT_3D ( 'NONE', #174, #583, #40 ) ;
#269 = AXIS2_PLACEMENT_3D ( 'NONE', #167, #442, #407 ) ;
#270 = FACE_OUTER_BOUND ( 'NONE', #183, .T. ) ;
#271 = EDGE_LOOP ( 'NONE', ( #585, #17, #487, #175 ) ) ;
#272 = CARTESIAN_POINT ( 'NONE',  ( 4.000000000000003553, 3.000000000000000000, 12.25000000000000178 ) ) ;
#273 = EDGE_LOOP ( 'NONE', ( #164, #452, #218, #484 ) ) ;
#274 = CARTESIAN_POINT ( 'NONE',  ( 0.0000000000000000000, 3.000000000000000000, 0.0000000000000000000 ) ) ;
#275 = DIRECTION ( 'NONE',  ( -0.0000000000000000000, -1.000000000000000000, -0.0000000000000000000 ) ) ;
#276 = ORIENTED_EDGE ( 'NONE', *, *, #588, .T. ) ;
#277 = ADVANCED_FACE ( 'NONE', ( #485, #479 ), #256, .F. ) ;
#278 = CARTESIAN_POINT ( 'NONE',  ( 9.800000000000000711, 2.299999999999999822, 0.0000000000000000000 ) ) ;
#279 = CARTESIAN_POINT ( 'NONE',  ( -18.99999999999999645, 3.000000000000000000, -12.25000000000000000 ) ) ;
#280 = AXIS2_PLACEMENT_3D ( 'NONE', #553, #287, #381 ) ;
#281 = EDGE_LOOP ( 'NONE', ( #41, #595 ) ) ;
#282 = ORIENTED_EDGE ( 'NONE', *, *, #91, .F. ) ;
#283 = DIRECTION ( 'NONE',  ( 0.0000000000000000000, 1.000000000000000000, 0.0000000000000000000 ) ) ;
#284 = DIRECTION ( 'NONE',  ( 0.0000000000000000000, 0.0000000000000000000, 1.000000000000000000 ) ) ;
#285 = LINE ( 'NONE', #513, #291 ) ;
#286 = LINE ( 'NONE', #201, #458 ) ;
#287 = DIRECTION ( 'NONE',  ( 0.0000000000000000000, 1.000000000000000000, 0.0000000000000000000 ) ) ;
#288 = DIRECTION ( 'NONE',  ( 0.0000000000000000000, 1.000000000000000000, 0.0000000000000000000 ) ) ;
#289 = ADVANCED_FACE ( 'NONE', ( #347 ), #264, .T. ) ;
#290 = AXIS2_PLACEMENT_3D ( 'NONE', #470, #53, #506 ) ;
#291 = VECTOR ( 'NONE', #601, 1000.000000000000000 ) ;
#292 = DIRECTION ( 'NONE',  ( 0.0000000000000000000, 0.0000000000000000000, -1.000000000000000000 ) ) ;
#293 = EDGE_CURVE ( 'NONE', #220, #298, #447, .T. ) ;
#294 = FACE_OUTER_BOUND ( 'NONE', #351, .T. ) ;
#295 = CARTESIAN_POINT ( 'NONE',  ( 0.0000000000000000000, 0.0000000000000000000, 0.0000000000000000000 ) ) ;
#296 = LINE ( 'NONE', #173, #98 ) ;
#297 = CARTESIAN_POINT ( 'NONE',  ( -17.99999999999999645, 3.000000000000000000, -11.25000000000000000 ) ) ;
#298 = VERTEX_POINT ( 'NONE', #578 ) ;
#299 = CARTESIAN_POINT ( 'NONE',  ( 0.0000000000000000000, 3.000000000000000000, -8.074999999999999289 ) ) ;
#300 = VECTOR ( 'NONE', #153, 1000.000000000000000 ) ;
#301 = CARTESIAN_POINT ( 'NONE',  ( 0.0000000000000000000, 3.000000000000000000, 9.800000000000000711 ) ) ;
#302 = ORIENTED_EDGE ( 'NONE', *, *, #250, .F. ) ;
#303 = ORIENTED_EDGE ( 'NONE', *, *, #512, .F. ) ;
#304 = CARTESIAN_POINT ( 'NONE',  ( -18.99999999999999645, 0.0000000000000000000, -12.25000000000000000 ) ) ;
#305 = CARTESIAN_POINT ( 'NONE',  ( 0.0000000000000000000, 2.299999999999999822, 0.0000000000000000000 ) ) ;
#306 = ORIENTED_EDGE ( 'NONE', *, *, #383, .T. ) ;
#307 = CARTESIAN_POINT ( 'NONE',  ( 0.0000000000000000000, 0.0000000000000000000, 0.0000000000000000000 ) ) ;
#308 = VECTOR ( 'NONE', #275, 1000.000000000000000 ) ;
#309 = CIRCLE ( 'NONE', #414, 15.00000000000000000 ) ;
#310 = ORIENTED_EDGE ( 'NONE', *, *, #146, .T. ) ;
#311 = DIRECTION ( 'NONE',  ( 0.0000000000000000000, 0.0000000000000000000, 1.000000000000000000 ) ) ;
#312 = CYLINDRICAL_SURFACE ( 'NONE', #339, 8.074999999999999289 ) ;
#313 = FACE_OUTER_BOUND ( 'NONE', #591, .T. ) ;
#314 = ORIENTED_EDGE ( 'NONE', *, *, #54, .F. ) ;
#315 = DIRECTION ( 'NONE',  ( -1.000000000000000000, -0.0000000000000000000, -0.0000000000000000000 ) ) ;
#316 = VERTEX_POINT ( 'NONE', #111 ) ;
#317 = AXIS2_PLACEMENT_3D ( 'NONE', #334, #510, #284 ) ;
#318 = CYLINDRICAL_SURFACE ( 'NONE', #46, 15.00000000000000000 ) ;
#319 = VERTEX_POINT ( 'NONE', #18 ) ;
#320 = FACE_BOUND ( 'NONE', #178, .T. ) ;
#321 = CARTESIAN_POINT ( 'NONE',  ( 0.0000000000000000000, 3.000000000000000000, 0.0000000000000000000 ) ) ;
#322 = EDGE_CURVE ( 'NONE', #9, #499, #219, .T. ) ;
#323 = CARTESIAN_POINT ( 'NONE',  ( 0.0000000000000000000, 0.0000000000000000000, 0.0000000000000000000 ) ) ;
#324 = VERTEX_POINT ( 'NONE', #210 ) ;
#325 = DIRECTION ( 'NONE',  ( 0.0000000000000000000, 0.0000000000000000000, 1.000000000000000000 ) ) ;
#326 = CARTESIAN_POINT ( 'NONE',  ( 1.200153863164406345E-15, 3.000000000000000000, -9.800000000000000711 ) ) ;
#327 = ORIENTED_EDGE ( 'NONE', *, *, #367, .F. ) ;
#328 = VECTOR ( 'NONE', #315, 1000.000000000000000 ) ;
#329 = DIRECTION ( 'NONE',  ( 0.0000000000000000000, 0.0000000000000000000, 1.000000000000000000 ) ) ;
#330 = CIRCLE ( 'NONE', #340, 11.20000000000000107 ) ;
#331 = CIRCLE ( 'NONE', #159, 15.00000000000000000 ) ;
#332 = ORIENTED_EDGE ( 'NONE', *, *, #480, .T. ) ;
#333 = FACE_OUTER_BOUND ( 'NONE', #581, .T. ) ;
#334 = CARTESIAN_POINT ( 'NONE',  ( 19.00000000000000355, 3.000000000000000000, -12.25000000000000000 ) ) ;
#335 = DIRECTION ( 'NONE',  ( 0.0000000000000000000, 1.000000000000000000, 0.0000000000000000000 ) ) ;
#336 = DIRECTION ( 'NONE',  ( 0.0000000000000000000, 1.000000000000000000, 0.0000000000000000000 ) ) ;
#337 = DIRECTION ( 'NONE',  ( 0.0000000000000000000, 1.000000000000000000, 0.0000000000000000000 ) ) ;
#338 = EDGE_CURVE ( 'NONE', #496, #212, #515, .T. ) ;
#339 = AXIS2_PLACEMENT_3D ( 'NONE', #321, #369, #486 ) ;
#340 = AXIS2_PLACEMENT_3D ( 'NONE', #4, #466, #519 ) ;
#341 = VERTEX_POINT ( 'NONE', #99 ) ;
#342 = CARTESIAN_POINT ( 'NONE',  ( 0.0000000000000000000, 3.000000000000000000, 0.0000000000000000000 ) ) ;
#343 = DIRECTION ( 'NONE',  ( 1.000000000000000000, 0.0000000000000000000, 4.565061778886334783E-17 ) ) ;
#344 = LINE ( 'NONE', #299, #48 ) ;
#345 = AXIS2_PLACEMENT_3D ( 'NONE', #391, #471, #148 ) ;
#346 = VERTEX_POINT ( 'NONE', #514 ) ;
#347 = FACE_OUTER_BOUND ( 'NONE', #475, .T. ) ;
#348 = AXIS2_PLACEMENT_3D ( 'NONE', #100, #335, #207 ) ;
#349 = AXIS2_PLACEMENT_3D ( 'NONE', #274, #133, #375 ) ;
#350 = ADVANCED_FACE ( 'NONE', ( #52 ), #57, .F. ) ;
#351 = EDGE_LOOP ( 'NONE', ( #234, #28, #310, #118 ) ) ;
#352 = DIRECTION ( 'NONE',  ( 0.0000000000000000000, 0.0000000000000000000, 1.000000000000000000 ) ) ;
#353 = ORIENTED_EDGE ( 'NONE', *, *, #562, .T. ) ;
#354 = CARTESIAN_POINT ( 'NONE',  ( -17.99999999999999645, 3.000000000000000000, -12.25000000000000000 ) ) ;
#355 = ORIENTED_EDGE ( 'NONE', *, *, #477, .F. ) ;
#356 = DIRECTION ( 'NONE',  ( 0.0000000000000000000, 0.0000000000000000000, 1.000000000000000000 ) ) ;
#357 = AXIS2_PLACEMENT_3D ( 'NONE', #116, #476, #311 ) ;
#358 = DIRECTION ( 'NONE',  ( 0.0000000000000000000, -1.000000000000000000, 0.0000000000000000000 ) ) ;
#359 = ORIENTED_EDGE ( 'NONE', *, *, #237, .T. ) ;
#360 = LINE ( 'NONE', #537, #147 ) ;
#361 = VERTEX_POINT ( 'NONE', #249 ) ;
#362 = LINE ( 'NONE', #122, #7 ) ;
#363 = ADVANCED_FACE ( 'NONE', ( #294 ), #252, .F. ) ;
#364 = DIRECTION ( 'NONE',  ( -1.000000000000000000, 0.0000000000000000000, -4.565061778886334783E-17 ) ) ;
#365 = EDGE_LOOP ( 'NONE', ( #556, #589, #539, #89 ) ) ;
#366 = LINE ( 'NONE', #467, #387 ) ;
#367 = EDGE_CURVE ( 'NONE', #496, #316, #344, .T. ) ;
#368 = CIRCLE ( 'NONE', #260, 11.20000000000000107 ) ;
#369 = DIRECTION ( 'NONE',  ( -0.0000000000000000000, -1.000000000000000000, -0.0000000000000000000 ) ) ;
#370 = ORIENTED_EDGE ( 'NONE', *, *, #243, .F. ) ;
#371 = LINE ( 'NONE', #463, #493 ) ;
#372 = DIRECTION ( 'NONE',  ( -0.0000000000000000000, -1.000000000000000000, -0.0000000000000000000 ) ) ;
#373 = DIRECTION ( 'NONE',  ( 0.0000000000000000000, 0.0000000000000000000, 1.000000000000000000 ) ) ;
#374 = ORIENTED_EDGE ( 'NONE', *, *, #250, .T. ) ;
#375 = DIRECTION ( 'NONE',  ( 0.0000000000000000000, 0.0000000000000000000, 1.000000000000000000 ) ) ;
#376 = VERTEX_POINT ( 'NONE', #1 ) ;
#377 =( NAMED_UNIT ( * ) PLANE_ANGLE_UNIT ( ) SI_UNIT ( $, .RADIAN. ) );
#378 = FACE_OUTER_BOUND ( 'NONE', #273, .T. ) ;
#379 = VECTOR ( 'NONE', #156, 1000.000000000000000 ) ;
#380 = ORIENTED_EDGE ( 'NONE', *, *, #179, .F. ) ;
#381 = DIRECTION ( 'NONE',  ( 1.000000000000000000, 0.0000000000000000000, 0.0000000000000000000 ) ) ;
#382 = DIRECTION ( 'NONE',  ( 0.0000000000000000000, 0.0000000000000000000, -1.000000000000000000 ) ) ;
#383 = EDGE_CURVE ( 'NONE', #212, #43, #584, .T. ) ;
#384 = EDGE_CURVE ( 'NONE', #361, #70, #286, .T. ) ;
#385 = LINE ( 'NONE', #150, #16 ) ;
#386 = CIRCLE ( 'NONE', #505, 1.000000000000000888 ) ;
#387 = VECTOR ( 'NONE', #545, 1000.000000000000000 ) ;
#388 = SURFACE_STYLE_USAGE ( .BOTH. , #427 ) ;
#389 = FACE_BOUND ( 'NONE', #398, .T. ) ;
#390 = EDGE_LOOP ( 'NONE', ( #32, #393 ) ) ;
#391 = CARTESIAN_POINT ( 'NONE',  ( 0.0000000000000000000, 3.000000000000000000, 0.0000000000000000000 ) ) ;
#392 = AXIS2_PLACEMENT_3D ( 'NONE', #50, #337, #329 ) ;
#393 = ORIENTED_EDGE ( 'NONE', *, *, #494, .T. ) ;
#394 = DIRECTION ( 'NONE',  ( 0.0000000000000000000, 0.0000000000000000000, 1.000000000000000000 ) ) ;
#395 = ORIENTED_EDGE ( 'NONE', *, *, #293, .F. ) ;
#396 = CARTESIAN_POINT ( 'NONE',  ( -18.99999999999999645, 3.000000000000000000, -12.25000000000000000 ) ) ;
#397 = EDGE_CURVE ( 'NONE', #70, #319, #330, .T. ) ;
#398 = EDGE_LOOP ( 'NONE', ( #359, #306 ) ) ;
#399 = DIRECTION ( 'NONE',  ( 0.0000000000000000000, 0.0000000000000000000, 1.000000000000000000 ) ) ;
#400 = MANIFOLD_SOLID_BREP ( 'Chamfer1', #25 ) ;
#401 = ADVANCED_FACE ( 'NONE', ( #389, #313 ), #27, .T. ) ;
#402 = LINE ( 'NONE', #279, #328 ) ;
#403 = ORIENTED_EDGE ( 'NONE', *, *, #293, .T. ) ;
#404 = FACE_OUTER_BOUND ( 'NONE', #19, .T. ) ;
#405 = ORIENTED_EDGE ( 'NONE', *, *, #21, .T. ) ;
#406 = DIRECTION ( 'NONE',  ( -0.0000000000000000000, -0.0000000000000000000, -1.000000000000000000 ) ) ;
#407 = DIRECTION ( 'NONE',  ( 0.0000000000000000000, -0.0000000000000000000, 1.000000000000000000 ) ) ;
#408 = VERTEX_POINT ( 'NONE', #538 ) ;
#409 = EDGE_CURVE ( 'NONE', #536, #209, #607, .T. ) ;
#410 = DIRECTION ( 'NONE',  ( 0.0000000000000000000, 0.0000000000000000000, -1.000000000000000000 ) ) ;
#411 = CARTESIAN_POINT ( 'NONE',  ( -3.999999999999996447, 3.000000000000000000, -2.749999999999998224 ) ) ;
#412 = ORIENTED_EDGE ( 'NONE', *, *, #397, .T. ) ;
#413 = CARTESIAN_POINT ( 'NONE',  ( -18.99999999999999645, 3.000000000000000000, -2.749999999999999112 ) ) ;
#414 = AXIS2_PLACEMENT_3D ( 'NONE', #162, #580, #105 ) ;
#415 = CYLINDRICAL_SURFACE ( 'NONE', #423, 8.074999999999999289 ) ;
#416 = ORIENTED_EDGE ( 'NONE', *, *, #338, .T. ) ;
#417 = CARTESIAN_POINT ( 'NONE',  ( 19.00000000000000355, 3.000000000000000000, -11.25000000000000000 ) ) ;
#418 = EDGE_CURVE ( 'NONE', #577, #316, #223, .T. ) ;
#419 = ORIENTED_EDGE ( 'NONE', *, *, #214, .T. ) ;
#420 = APPLICATION_PROTOCOL_DEFINITION ( 'draft international standard', 'automotive_design', 1998, #546 ) ;
#421 = CARTESIAN_POINT ( 'NONE',  ( -18.99999999999999645, 3.000000000000000000, -12.25000000000000000 ) ) ;
#422 = FACE_OUTER_BOUND ( 'NONE', #390, .T. ) ;
#423 = AXIS2_PLACEMENT_3D ( 'NONE', #125, #551, #594 ) ;
#424 = VECTOR ( 'NONE', #160, 1000.000000000000000 ) ;
#425 = AXIS2_PLACEMENT_3D ( 'NONE', #241, #336, #180 ) ;
#426 = EDGE_CURVE ( 'NONE', #239, #461, #567, .T. ) ;
#427 = SURFACE_SIDE_STYLE ('',( #203 ) ) ;
#428 = ADVANCED_FACE ( 'NONE', ( #49 ), #192, .F. ) ;
#429 = DIRECTION ( 'NONE',  ( -0.0000000000000000000, -1.000000000000000000, -0.0000000000000000000 ) ) ;
#430 = DIRECTION ( 'NONE',  ( 0.0000000000000000000, 1.000000000000000000, 0.0000000000000000000 ) ) ;
#431 = VECTOR ( 'NONE', #13, 1000.000000000000000 ) ;
#432 = DIRECTION ( 'NONE',  ( -0.0000000000000000000, -1.000000000000000000, -0.0000000000000000000 ) ) ;
#433 = ORIENTED_EDGE ( 'NONE', *, *, #562, .F. ) ;
#434 = EDGE_LOOP ( 'NONE', ( #522, #63, #602, #327 ) ) ;
#435 = DIRECTION ( 'NONE',  ( 0.0000000000000000000, 1.000000000000000000, 0.0000000000000000000 ) ) ;
#436 = CIRCLE ( 'NONE', #113, 8.575000000000013500 ) ;
#437 = ORIENTED_EDGE ( 'NONE', *, *, #6, .F. ) ;
#438 = CARTESIAN_POINT ( 'NONE',  ( -17.99999999999999645, 0.0000000000000000000, -11.25000000000000000 ) ) ;
#439 = CIRCLE ( 'NONE', #425, 8.074999999999999289 ) ;
#440 = ORIENTED_EDGE ( 'NONE', *, *, #512, .T. ) ;
#441 = LINE ( 'NONE', #262, #576 ) ;
#442 = DIRECTION ( 'NONE',  ( 0.0000000000000000000, 1.000000000000000000, 0.0000000000000000000 ) ) ;
#443 = ORIENTED_EDGE ( 'NONE', *, *, #6, .T. ) ;
#444 = DIRECTION ( 'NONE',  ( 0.0000000000000000000, -1.000000000000000000, 0.0000000000000000000 ) ) ;
#445 = CARTESIAN_POINT ( 'NONE',  ( 0.0000000000000000000, 2.299999999999999822, 0.0000000000000000000 ) ) ;
#446 = ORIENTED_EDGE ( 'NONE', *, *, #206, .T. ) ;
#447 = CIRCLE ( 'NONE', #196, 1.000000000000000888 ) ;
#448 = AXIS2_PLACEMENT_3D ( 'NONE', #295, #11, #574 ) ;
#449 = CARTESIAN_POINT ( 'NONE',  ( 0.0000000000000000000, 3.000000000000000000, 11.20000000000000107 ) ) ;
#450 = ORIENTED_EDGE ( 'NONE', *, *, #21, .F. ) ;
#451 = FACE_OUTER_BOUND ( 'NONE', #86, .T. ) ;
#452 = ORIENTED_EDGE ( 'NONE', *, *, #565, .T. ) ;
#453 = DIRECTION ( 'NONE',  ( 0.0000000000000000000, -1.000000000000000000, 0.0000000000000000000 ) ) ;
#454 = DIRECTION ( 'NONE',  ( 1.000000000000000000, 0.0000000000000000000, -0.0000000000000000000 ) ) ;
#455 = ORIENTED_EDGE ( 'NONE', *, *, #456, .T. ) ;
#456 = EDGE_CURVE ( 'NONE', #346, #496, #558, .T. ) ;
#457 = CARTESIAN_POINT ( 'NONE',  ( 18.00000000000000355, 3.000000000000000000, -11.25000000000000000 ) ) ;
#458 = VECTOR ( 'NONE', #430, 1000.000000000000000 ) ;
#459 = DIRECTION ( 'NONE',  ( 0.0000000000000000000, 0.0000000000000000000, 1.000000000000000000 ) ) ;
#460 = ORIENTED_EDGE ( 'NONE', *, *, #232, .F. ) ;
#461 = VERTEX_POINT ( 'NONE', #93 ) ;
#462 = LINE ( 'NONE', #132, #424 ) ;
#463 = CARTESIAN_POINT ( 'NONE',  ( 19.00000000000000355, 3.000000000000000000, -11.25000000000000000 ) ) ;
#464 = DIRECTION ( 'NONE',  ( 1.000000000000000000, 0.0000000000000000000, 0.0000000000000000000 ) ) ;
#465 = EDGE_CURVE ( 'NONE', #66, #319, #462, .T. ) ;
#466 = DIRECTION ( 'NONE',  ( -0.0000000000000000000, -1.000000000000000000, -0.0000000000000000000 ) ) ;
#467 = CARTESIAN_POINT ( 'NONE',  ( -3.999999999999996447, 3.000000000000000000, 12.25000000000000000 ) ) ;
#468 = CIRCLE ( 'NONE', #544, 11.20000000000000107 ) ;
#469 = VERTEX_POINT ( 'NONE', #208 ) ;
#470 = CARTESIAN_POINT ( 'NONE',  ( 0.0000000000000000000, 0.0000000000000000000, 0.0000000000000000000 ) ) ;
#471 = DIRECTION ( 'NONE',  ( 0.0000000000000000000, 1.000000000000000000, 0.0000000000000000000 ) ) ;
#472 = ORIENTED_EDGE ( 'NONE', *, *, #426, .F. ) ;
#473 = DIRECTION ( 'NONE',  ( 0.0000000000000000000, 1.000000000000000000, 0.0000000000000000000 ) ) ;
#474 = AXIS2_PLACEMENT_3D ( 'NONE', #541, #130, #34 ) ;
#475 = EDGE_LOOP ( 'NONE', ( #261, #22, #395, #120 ) ) ;
#476 = DIRECTION ( 'NONE',  ( 0.0000000000000000000, 1.000000000000000000, 0.0000000000000000000 ) ) ;
#477 = EDGE_CURVE ( 'NONE', #239, #209, #572, .T. ) ;
#478 = EDGE_LOOP ( 'NONE', ( #137, #549, #502, #155 ) ) ;
#479 = FACE_BOUND ( 'NONE', #281, .T. ) ;
#480 = EDGE_CURVE ( 'NONE', #461, #239, #157, .T. ) ;
#481 = AXIS2_PLACEMENT_3D ( 'NONE', #323, #187, #373 ) ;
#482 = EDGE_LOOP ( 'NONE', ( #35, #38, #188, #355 ) ) ;
#483 = CARTESIAN_POINT ( 'NONE',  ( 0.0000000000000000000, 3.000000000000000000, 0.0000000000000000000 ) ) ;
#484 = ORIENTED_EDGE ( 'NONE', *, *, #232, .T. ) ;
#485 = FACE_OUTER_BOUND ( 'NONE', #79, .T. ) ;
#486 = DIRECTION ( 'NONE',  ( 0.0000000000000000000, 0.0000000000000000000, -1.000000000000000000 ) ) ;
#487 = ORIENTED_EDGE ( 'NONE', *, *, #62, .F. ) ;
#488 = UNCERTAINTY_MEASURE_WITH_UNIT (LENGTH_MEASURE( 1.000000000000000082E-05 ), #136, 'distance_accuracy_value', 'NONE');
#489 = FACE_OUTER_BOUND ( 'NONE', #434, .T. ) ;
#490 = AXIS2_PLACEMENT_3D ( 'NONE', #445, #495, #33 ) ;
#491 = EDGE_LOOP ( 'NONE', ( #115, #543, #161, #231 ) ) ;
#492 = AXIS2_PLACEMENT_3D ( 'NONE', #259, #444, #23 ) ;
#493 = VECTOR ( 'NONE', #96, 1000.000000000000000 ) ;
#494 = EDGE_CURVE ( 'NONE', #66, #361, #468, .T. ) ;
#495 = DIRECTION ( 'NONE',  ( 0.0000000000000000000, 1.000000000000000000, 0.0000000000000000000 ) ) ;
#496 = VERTEX_POINT ( 'NONE', #151 ) ;
#497 = CARTESIAN_POINT ( 'NONE',  ( 9.889022903114875835E-16, 0.0000000000000000000, 8.074999999999999289 ) ) ;
#498 = CARTESIAN_POINT ( 'NONE',  ( 0.0000000000000000000, 3.000000000000000000, 0.0000000000000000000 ) ) ;
#499 = VERTEX_POINT ( 'NONE', #413 ) ;
#500 = DIRECTION ( 'NONE',  ( 0.0000000000000000000, -0.0000000000000000000, 1.000000000000000000 ) ) ;
#501 = DIRECTION ( 'NONE',  ( 0.0000000000000000000, 1.000000000000000000, 0.0000000000000000000 ) ) ;
#502 = ORIENTED_EDGE ( 'NONE', *, *, #384, .T. ) ;
#503 = EDGE_CURVE ( 'NONE', #74, #529, #285, .T. ) ;
#504 = CONICAL_SURFACE ( 'NONE', #392, 8.074999999999999289, 0.7853981633974552734 ) ;
#505 = AXIS2_PLACEMENT_3D ( 'NONE', #297, #473, #102 ) ;
#506 = DIRECTION ( 'NONE',  ( 0.0000000000000000000, 0.0000000000000000000, 1.000000000000000000 ) ) ;
#507 = ORIENTED_EDGE ( 'NONE', *, *, #91, .T. ) ;
#508 = DIRECTION ( 'NONE',  ( 0.0000000000000000000, 1.000000000000000000, 0.0000000000000000000 ) ) ;
#509 = CARTESIAN_POINT ( 'NONE',  ( 0.0000000000000000000, 3.000000000000000000, 0.0000000000000000000 ) ) ;
#510 = DIRECTION ( 'NONE',  ( -1.000000000000000000, 0.0000000000000000000, 0.0000000000000000000 ) ) ;
#511 = PLANE ( 'NONE',  #559 ) ;
#512 = EDGE_CURVE ( 'NONE', #135, #554, #331, .T. ) ;
#513 = CARTESIAN_POINT ( 'NONE',  ( 19.00000000000000355, 3.000000000000000000, -12.25000000000000000 ) ) ;
#514 = CARTESIAN_POINT ( 'NONE',  ( 9.889022903114875835E-16, 2.499999999999992895, 8.074999999999999289 ) ) ;
#515 = LINE ( 'NONE', #59, #65 ) ;
#516 = ADVANCED_FACE ( 'NONE', ( #128 ), #141, .T. ) ;
#517 = ORIENTED_EDGE ( 'NONE', *, *, #253, .F. ) ;
#518 =( NAMED_UNIT ( * ) SI_UNIT ( $, .STERADIAN. ) SOLID_ANGLE_UNIT ( ) );
#519 = DIRECTION ( 'NONE',  ( 0.0000000000000000000, 0.0000000000000000000, 1.000000000000000000 ) ) ;
#520 = VECTOR ( 'NONE', #233, 1000.000000000000000 ) ;
#521 = COLOUR_RGB ( '',0.7921568627450980005, 0.8196078431372548767, 0.9333333333333333481 ) ;
#522 = ORIENTED_EDGE ( 'NONE', *, *, #547, .T. ) ;
#523 = LINE ( 'NONE', #526, #379 ) ;
#524 = DIRECTION ( 'NONE',  ( 0.0000000000000000000, 1.000000000000000000, 0.0000000000000000000 ) ) ;
#525 = EDGE_LOOP ( 'NONE', ( #168, #416, #266, #222 ) ) ;
#526 = CARTESIAN_POINT ( 'NONE',  ( -18.99999999999999645, 0.0000000000000000000, -12.25000000000000000 ) ) ;
#527 = PRODUCT_DEFINITION_CONTEXT ( 'detailed design', #225, 'design' ) ;
#528 = ADVANCED_FACE ( 'NONE', ( #197 ), #563, .T. ) ;
#529 = VERTEX_POINT ( 'NONE', #417 ) ;
#530 = CARTESIAN_POINT ( 'NONE',  ( -3.999999999999996447, 0.0000000000000000000, -2.749999999999998224 ) ) ;
#531 = CIRCLE ( 'NONE', #490, 11.20000000000000107 ) ;
#532 = ORIENTED_EDGE ( 'NONE', *, *, #190, .T. ) ;
#533 = DIRECTION ( 'NONE',  ( -0.0000000000000000000, -1.000000000000000000, -0.0000000000000000000 ) ) ;
#534 = AXIS2_PLACEMENT_3D ( 'NONE', #457, #593, #410 ) ;
#535 = DIRECTION ( 'NONE',  ( 0.0000000000000000000, 0.0000000000000000000, -1.000000000000000000 ) ) ;
#536 = VERTEX_POINT ( 'NONE', #145 ) ;
#537 = CARTESIAN_POINT ( 'NONE',  ( -18.99999999999999645, 3.000000000000000000, -2.749999999999999112 ) ) ;
#538 = CARTESIAN_POINT ( 'NONE',  ( 18.00000000000000355, 3.000000000000000000, -12.25000000000000000 ) ) ;
#539 = ORIENTED_EDGE ( 'NONE', *, *, #68, .F. ) ;
#540 = CYLINDRICAL_SURFACE ( 'NONE', #268, 9.800000000000000711 ) ;
#541 = CARTESIAN_POINT ( 'NONE',  ( 0.0000000000000000000, 3.000000000000000000, 0.0000000000000000000 ) ) ;
#542 = CIRCLE ( 'NONE', #290, 8.074999999999999289 ) ;
#543 = ORIENTED_EDGE ( 'NONE', *, *, #465, .T. ) ;
#544 = AXIS2_PLACEMENT_3D ( 'NONE', #143, #524, #464 ) ;
#545 = DIRECTION ( 'NONE',  ( 0.0000000000000000000, -1.000000000000000000, 0.0000000000000000000 ) ) ;
#546 = APPLICATION_CONTEXT ( 'automotive_design' ) ;
#547 = EDGE_CURVE ( 'NONE', #496, #346, #439, .T. ) ;
#548 = DIRECTION ( 'NONE',  ( 0.0000000000000000000, 0.0000000000000000000, 1.000000000000000000 ) ) ;
#549 = ORIENTED_EDGE ( 'NONE', *, *, #75, .F. ) ;
#550 = DIRECTION ( 'NONE',  ( 0.0000000000000000000, -0.0000000000000000000, 1.000000000000000000 ) ) ;
#551 = DIRECTION ( 'NONE',  ( -0.0000000000000000000, -1.000000000000000000, -0.0000000000000000000 ) ) ;
#552 = ADVANCED_FACE ( 'NONE', ( #42, #333 ), #511, .T. ) ;
#553 = CARTESIAN_POINT ( 'NONE',  ( 0.0000000000000000000, 2.299999999999999822, 0.0000000000000000000 ) ) ;
#554 = VERTEX_POINT ( 'NONE', #189 ) ;
#555 = LINE ( 'NONE', #39, #80 ) ;
#556 = ORIENTED_EDGE ( 'NONE', *, *, #257, .F. ) ;
#557 = DIRECTION ( 'NONE',  ( 0.0000000000000000000, -1.000000000000000000, 0.0000000000000000000 ) ) ;
#558 = CIRCLE ( 'NONE', #90, 8.074999999999999289 ) ;
#559 = AXIS2_PLACEMENT_3D ( 'NONE', #509, #184, #550 ) ;
#560 = FACE_OUTER_BOUND ( 'NONE', #14, .T. ) ;
#561 = ORIENTED_EDGE ( 'NONE', *, *, #179, .T. ) ;
#562 = EDGE_CURVE ( 'NONE', #499, #579, #29, .T. ) ;
#563 = CYLINDRICAL_SURFACE ( 'NONE', #534, 1.000000000000000888 ) ;
#564 =( NAMED_UNIT ( * ) PLANE_ANGLE_UNIT ( ) SI_UNIT ( $, .RADIAN. ) );
#565 = EDGE_CURVE ( 'NONE', #238, #529, #371, .T. ) ;
#566 = DIRECTION ( 'NONE',  ( 1.000000000000000000, 0.0000000000000000000, 0.0000000000000000000 ) ) ;
#567 = CIRCLE ( 'NONE', #280, 9.800000000000000711 ) ;
#568 = ADVANCED_FACE ( 'NONE', ( #422, #320 ), #44, .T. ) ;
#569 = ORIENTED_EDGE ( 'NONE', *, *, #503, .T. ) ;
#570 = DIRECTION ( 'NONE',  ( 8.659560562354994488E-17, 0.7071067811865426878, -0.7071067811865524577 ) ) ;
#571 = EDGE_CURVE ( 'NONE', #579, #341, #366, .T. ) ;
#572 = LINE ( 'NONE', #301, #431 ) ;
#573 = ORIENTED_EDGE ( 'NONE', *, *, #62, .T. ) ;
#574 = DIRECTION ( 'NONE',  ( 1.000000000000000000, 0.0000000000000000000, 0.0000000000000000000 ) ) ;
#575 = VECTOR ( 'NONE', #88, 1000.000000000000000 ) ;
#576 = VECTOR ( 'NONE', #20, 1000.000000000000000 ) ;
#577 = VERTEX_POINT ( 'NONE', #497 ) ;
#578 = CARTESIAN_POINT ( 'NONE',  ( -17.99999999999999645, 0.0000000000000000000, -12.25000000000000000 ) ) ;
#579 = VERTEX_POINT ( 'NONE', #84 ) ;
#580 = DIRECTION ( 'NONE',  ( 0.0000000000000000000, 1.000000000000000000, 0.0000000000000000000 ) ) ;
#581 = EDGE_LOOP ( 'NONE', ( #573, #446, #107, #353, #507, #374, #569, #255 ) ) ;
#582 = DIRECTION ( 'NONE',  ( 0.0000000000000000000, 0.0000000000000000000, 1.000000000000000000 ) ) ;
#583 = DIRECTION ( 'NONE',  ( 0.0000000000000000000, 1.000000000000000000, 0.0000000000000000000 ) ) ;
#584 = CIRCLE ( 'NONE', #170, 8.575000000000013500 ) ;
#585 = ORIENTED_EDGE ( 'NONE', *, *, #253, .T. ) ;
#586 = AXIS2_PLACEMENT_3D ( 'NONE', #236, #557, #382 ) ;
#587 = CARTESIAN_POINT ( 'NONE',  ( -18.99999999999999645, 3.000000000000000000, -11.25000000000000000 ) ) ;
#588 = EDGE_CURVE ( 'NONE', #209, #536, #217, .T. ) ;
#589 = ORIENTED_EDGE ( 'NONE', *, *, #565, .F. ) ;
#590 = LINE ( 'NONE', #224, #575 ) ;
#591 = EDGE_LOOP ( 'NONE', ( #276, #191 ) ) ;
#592 = EDGE_CURVE ( 'NONE', #408, #324, #555, .T. ) ;
#593 = DIRECTION ( 'NONE',  ( 0.0000000000000000000, -1.000000000000000000, 0.0000000000000000000 ) ) ;
#594 = DIRECTION ( 'NONE',  ( 0.0000000000000000000, 0.0000000000000000000, -1.000000000000000000 ) ) ;
#595 = ORIENTED_EDGE ( 'NONE', *, *, #418, .T. ) ;
#596 = PRESENTATION_LAYER_ASSIGNMENT (  '', '', ( #149 ) ) ;
#597 = PRODUCT_DEFINITION ( 'UNKNOWN', '', #103, #527 ) ;
#598 = DIRECTION ( 'NONE',  ( -0.0000000000000000000, 1.000000000000000000, -0.0000000000000000000 ) ) ;
#599 = ORIENTED_EDGE ( 'NONE', *, *, #322, .F. ) ;
#600 = DIRECTION ( 'NONE',  ( 0.0000000000000000000, 1.000000000000000000, 0.0000000000000000000 ) ) ;
#601 = DIRECTION ( 'NONE',  ( -0.0000000000000000000, -0.0000000000000000000, -1.000000000000000000 ) ) ;
#602 = ORIENTED_EDGE ( 'NONE', *, *, #138, .F. ) ;
#603 = DIRECTION ( 'NONE',  ( 0.0000000000000000000, 1.000000000000000000, 0.0000000000000000000 ) ) ;
#604 = FACE_OUTER_BOUND ( 'NONE', #271, .T. ) ;
#605 = AXIS2_PLACEMENT_3D ( 'NONE', #421, #548, #454 ) ;
#606 = CARTESIAN_POINT ( 'NONE',  ( 4.000000000000003553, 0.0000000000000000000, -2.749999999999997335 ) ) ;
#607 = CIRCLE ( 'NONE', #474, 9.800000000000000711 ) ;
#608 = FACE_OUTER_BOUND ( 'NONE', #525, .T. ) ;
#609 = PRESENTATION_STYLE_ASSIGNMENT (( #388 ) ) ;
#610 = PRODUCT_CONTEXT ( 'NONE', #546, 'mechanical' ) ;
#611 = PLANE ( 'NONE',  #215 ) ;
ENDSEC;
END-ISO-10303-21;
